# xmcd
#
# Track frame offsets:
#	150
#	18587
#	40227
#	53967
#	66777
#	81022
#	95762
#	115090
#
# Disc length: 1670 seconds
#
# Revision: 1
# Processed by: cddbd v1.4PL0 Copyright (c) Steve Scherf et al.
# Submitted via: audiograbber 1.81.02
#
DISCID=65068408
DTITLE=Golden Rough - It's A Heck Of A Machine
DYEAR=1995
DGENRE=Country
TTITLE0=Sundowner
TTITLE1=Oh Lonesome Me
TTITLE2=Come To Sleep
TTITLE3=Nightlife
TTITLE4=Alexandria
TTITLE5=Hearts On Fire
TTITLE6=Shoes Without Heels
TTITLE7=Evening Star
EXTD=
EXTT0=
EXTT1=
EXTT2=
EXTT3=
EXTT4=
EXTT5=
EXTT6=
EXTT7=
PLAYORDER=
